<mxfile host="app.diagrams.net" agent="Mozilla/5.0 (Windows NT 10.0; Win64; x64) AppleWebKit/537.36 (KHTML, like Gecko) Chrome/139.0.0.0 Safari/537.36" version="28.1.2">
  <diagram name="Page-1" id="3ek6L9CJYeIshYWUm1VU">
    <mxGraphModel dx="2029" dy="2856" grid="1" gridSize="10" guides="1" tooltips="1" connect="1" arrows="1" fold="1" page="1" pageScale="1" pageWidth="850" pageHeight="1100" math="0" shadow="0">
      <root>
        <mxCell id="0" />
        <mxCell id="1" parent="0" />
        <mxCell id="EPnAkS95bglsHTF8loIi-454" value="" style="rounded=0;whiteSpace=wrap;html=1;" parent="1" vertex="1">
          <mxGeometry x="321" y="267" width="553" height="630" as="geometry" />
        </mxCell>
        <mxCell id="EPnAkS95bglsHTF8loIi-436" value="" style="rounded=0;whiteSpace=wrap;html=1;fillColor=#f5f5f5;fontColor=#333333;strokeColor=#666666;" parent="1" vertex="1">
          <mxGeometry x="330" y="-159" width="530" height="85" as="geometry" />
        </mxCell>
        <mxCell id="EPnAkS95bglsHTF8loIi-437" style="edgeStyle=orthogonalEdgeStyle;rounded=0;orthogonalLoop=1;jettySize=auto;html=1;entryX=0.5;entryY=1;entryDx=0;entryDy=0;" parent="1" source="EPnAkS95bglsHTF8loIi-436" target="EPnAkS95bglsHTF8loIi-435" edge="1">
          <mxGeometry relative="1" as="geometry" />
        </mxCell>
        <mxCell id="EPnAkS95bglsHTF8loIi-319" style="edgeStyle=orthogonalEdgeStyle;rounded=0;orthogonalLoop=1;jettySize=auto;html=1;entryX=0.5;entryY=1;entryDx=0;entryDy=0;" parent="1" source="EPnAkS95bglsHTF8loIi-231" target="EPnAkS95bglsHTF8loIi-224" edge="1">
          <mxGeometry relative="1" as="geometry">
            <Array as="points">
              <mxPoint x="596" y="717" />
              <mxPoint x="596" y="717" />
            </Array>
          </mxGeometry>
        </mxCell>
        <mxCell id="EPnAkS95bglsHTF8loIi-320" value="&lt;font style=&quot;font-size: 20px;&quot;&gt;Reshape &amp;amp; Permute&lt;/font&gt;" style="edgeLabel;html=1;align=center;verticalAlign=middle;resizable=0;points=[];" parent="EPnAkS95bglsHTF8loIi-319" vertex="1" connectable="0">
          <mxGeometry x="-0.0052" y="1" relative="1" as="geometry">
            <mxPoint as="offset" />
          </mxGeometry>
        </mxCell>
        <mxCell id="EPnAkS95bglsHTF8loIi-231" value="" style="rounded=0;whiteSpace=wrap;html=1;fillColor=#B4DDC7;strokeColor=#82B366;" parent="1" vertex="1">
          <mxGeometry x="330" y="742.5" width="530" height="73.5" as="geometry" />
        </mxCell>
        <mxCell id="EPnAkS95bglsHTF8loIi-224" value="" style="rounded=0;whiteSpace=wrap;html=1;fillColor=#B5D5DD;strokeColor=#82b366;" parent="1" vertex="1">
          <mxGeometry x="331.25" y="608.5" width="530" height="76.5" as="geometry" />
        </mxCell>
        <mxCell id="EPnAkS95bglsHTF8loIi-176" value="&lt;font style=&quot;font-size: 38px;&quot;&gt;&lt;span style=&quot;color: rgb(0, 0, 0);&quot;&gt;H×W×C&lt;/span&gt;&lt;sub style=&quot;color: rgb(0, 0, 0);&quot;&gt;in&lt;/sub&gt;&lt;/font&gt;" style="rounded=0;whiteSpace=wrap;html=1;fillColor=#f5f5f5;dashed=1;fontColor=#333333;strokeColor=#666666;rotation=0;" parent="1" vertex="1">
          <mxGeometry x="900" y="784" width="190" height="123.82" as="geometry" />
        </mxCell>
        <mxCell id="EPnAkS95bglsHTF8loIi-248" style="edgeStyle=orthogonalEdgeStyle;rounded=0;orthogonalLoop=1;jettySize=auto;html=1;entryX=0.5;entryY=1;entryDx=0;entryDy=0;fillColor=#0050ef;strokeColor=#88ACE2;" parent="1" source="EPnAkS95bglsHTF8loIi-18" target="EPnAkS95bglsHTF8loIi-20" edge="1">
          <mxGeometry relative="1" as="geometry" />
        </mxCell>
        <mxCell id="EPnAkS95bglsHTF8loIi-18" value="&lt;font style=&quot;font-size: 22px;&quot;&gt;Convolution&lt;/font&gt;" style="rounded=1;whiteSpace=wrap;html=1;rotation=90;fillColor=#88ACE2;fontColor=#ffffff;strokeColor=#006EAF;" parent="1" vertex="1">
          <mxGeometry x="2851.25" y="1045" width="126.25" height="40" as="geometry" />
        </mxCell>
        <mxCell id="EPnAkS95bglsHTF8loIi-23" style="edgeStyle=orthogonalEdgeStyle;rounded=0;orthogonalLoop=1;jettySize=auto;html=1;fillColor=#0050ef;strokeColor=#88ACE2;" parent="1" source="EPnAkS95bglsHTF8loIi-20" target="EPnAkS95bglsHTF8loIi-22" edge="1">
          <mxGeometry relative="1" as="geometry" />
        </mxCell>
        <mxCell id="EPnAkS95bglsHTF8loIi-20" value="&lt;font style=&quot;font-size: 22px;&quot;&gt;SiLU&lt;/font&gt;" style="ellipse;whiteSpace=wrap;html=1;aspect=fixed;rotation=90;fillColor=#88ACE2;fontColor=#ffffff;strokeColor=#006EAF;" parent="1" vertex="1">
          <mxGeometry x="2960" y="1025" width="80" height="80" as="geometry" />
        </mxCell>
        <mxCell id="EPnAkS95bglsHTF8loIi-252" style="edgeStyle=orthogonalEdgeStyle;rounded=0;orthogonalLoop=1;jettySize=auto;html=1;entryX=0.5;entryY=1;entryDx=0;entryDy=0;fillColor=#0050ef;strokeColor=#88ACE2;" parent="1" source="EPnAkS95bglsHTF8loIi-22" target="EPnAkS95bglsHTF8loIi-251" edge="1">
          <mxGeometry relative="1" as="geometry">
            <Array as="points" />
          </mxGeometry>
        </mxCell>
        <mxCell id="EPnAkS95bglsHTF8loIi-22" value="&lt;font style=&quot;font-size: 22px;&quot;&gt;Selective SSM&lt;/font&gt;" style="rounded=1;whiteSpace=wrap;html=1;rotation=90;fillColor=#88ACE2;fontColor=#ffffff;strokeColor=#006EAF;" parent="1" vertex="1">
          <mxGeometry x="2997.5" y="1045" width="170" height="40" as="geometry" />
        </mxCell>
        <mxCell id="EPnAkS95bglsHTF8loIi-247" style="edgeStyle=orthogonalEdgeStyle;rounded=0;orthogonalLoop=1;jettySize=auto;html=1;entryX=0.5;entryY=1;entryDx=0;entryDy=0;fillColor=#0050ef;strokeColor=#88ACE2;" parent="1" source="EPnAkS95bglsHTF8loIi-49" target="EPnAkS95bglsHTF8loIi-18" edge="1">
          <mxGeometry relative="1" as="geometry" />
        </mxCell>
        <mxCell id="EPnAkS95bglsHTF8loIi-49" value="&lt;font style=&quot;font-size: 22px;&quot;&gt;Up project&lt;/font&gt;" style="verticalLabelPosition=middle;verticalAlign=middle;html=1;shape=trapezoid;perimeter=trapezoidPerimeter;whiteSpace=wrap;size=0.23;arcSize=10;flipV=1;labelPosition=center;align=center;rotation=90;fillColor=#88ACE2;fontColor=#ffffff;strokeColor=#006EAF;" parent="1" vertex="1">
          <mxGeometry x="2770" y="1040" width="150" height="50" as="geometry" />
        </mxCell>
        <mxCell id="EPnAkS95bglsHTF8loIi-256" style="edgeStyle=orthogonalEdgeStyle;rounded=0;orthogonalLoop=1;jettySize=auto;html=1;entryX=0;entryY=0.5;entryDx=0;entryDy=0;fillColor=#0050ef;strokeColor=#88ACE2;" parent="1" source="EPnAkS95bglsHTF8loIi-57" target="EPnAkS95bglsHTF8loIi-255" edge="1">
          <mxGeometry relative="1" as="geometry" />
        </mxCell>
        <mxCell id="EPnAkS95bglsHTF8loIi-57" value="&lt;font style=&quot;font-size: 22px;&quot;&gt;Down Project&lt;/font&gt;" style="shape=trapezoid;perimeter=trapezoidPerimeter;whiteSpace=wrap;html=1;fixedSize=1;rotation=90;fillColor=#88ACE2;fontColor=#ffffff;strokeColor=#006EAF;" parent="1" vertex="1">
          <mxGeometry x="3107.5" y="970" width="175" height="40" as="geometry" />
        </mxCell>
        <mxCell id="EPnAkS95bglsHTF8loIi-68" style="edgeStyle=orthogonalEdgeStyle;rounded=0;orthogonalLoop=1;jettySize=auto;html=1;exitX=0.5;exitY=1;exitDx=0;exitDy=0;fillColor=#0050ef;strokeColor=#001DBC;" parent="1" edge="1">
          <mxGeometry relative="1" as="geometry">
            <mxPoint x="3052.5" y="994.3299999999999" as="sourcePoint" />
            <mxPoint x="3052.5" y="994.3299999999999" as="targetPoint" />
          </mxGeometry>
        </mxCell>
        <mxCell id="EPnAkS95bglsHTF8loIi-234" style="edgeStyle=orthogonalEdgeStyle;rounded=0;orthogonalLoop=1;jettySize=auto;html=1;entryX=0.5;entryY=1;entryDx=0;entryDy=0;" parent="1" source="EPnAkS95bglsHTF8loIi-94" target="EPnAkS95bglsHTF8loIi-231" edge="1">
          <mxGeometry relative="1" as="geometry" />
        </mxCell>
        <mxCell id="EPnAkS95bglsHTF8loIi-94" value="&lt;font style=&quot;font-size: 22px;&quot;&gt;Conv2d (channel: C)&lt;/font&gt;" style="rounded=1;whiteSpace=wrap;html=1;fillColor=#698A6B;fontColor=#ffffff;strokeColor=#005700;" parent="1" vertex="1">
          <mxGeometry x="330" y="836" width="530" height="40" as="geometry" />
        </mxCell>
        <mxCell id="EPnAkS95bglsHTF8loIi-114" value="&lt;font style=&quot;font-size: 22px;&quot;&gt;C×H×W&lt;/font&gt;" style="rounded=0;whiteSpace=wrap;html=1;" parent="1" vertex="1">
          <mxGeometry x="335" y="754" width="90" height="30" as="geometry" />
        </mxCell>
        <mxCell id="EPnAkS95bglsHTF8loIi-148" value="&lt;font style=&quot;font-size: 22px;&quot;&gt;T×C&lt;/font&gt;" style="rounded=0;whiteSpace=wrap;html=1;fillColor=default;strokeColor=#6c8ebf;" parent="1" vertex="1">
          <mxGeometry x="337.5" y="620" width="60" height="30" as="geometry" />
        </mxCell>
        <mxCell id="EPnAkS95bglsHTF8loIi-149" value="&lt;font style=&quot;font-size: 22px;&quot;&gt;T×C&lt;/font&gt;" style="rounded=0;whiteSpace=wrap;html=1;fillColor=default;strokeColor=#6c8ebf;" parent="1" vertex="1">
          <mxGeometry x="397.5" y="620" width="60" height="30" as="geometry" />
        </mxCell>
        <mxCell id="EPnAkS95bglsHTF8loIi-150" value="&lt;font style=&quot;font-size: 22px;&quot;&gt;T×C&lt;/font&gt;" style="rounded=0;whiteSpace=wrap;html=1;fillColor=default;strokeColor=#6c8ebf;" parent="1" vertex="1">
          <mxGeometry x="457.5" y="620" width="60" height="30" as="geometry" />
        </mxCell>
        <mxCell id="EPnAkS95bglsHTF8loIi-156" value="&lt;font style=&quot;font-size: 31px;&quot;&gt;...&lt;/font&gt;" style="text;html=1;align=center;verticalAlign=middle;whiteSpace=wrap;rounded=0;fillColor=none;strokeColor=none;" parent="1" vertex="1">
          <mxGeometry x="760" y="620" width="30" height="20" as="geometry" />
        </mxCell>
        <mxCell id="EPnAkS95bglsHTF8loIi-217" value="&lt;font style=&quot;font-size: 22px;&quot;&gt;T×C&lt;/font&gt;" style="rounded=0;whiteSpace=wrap;html=1;fillColor=default;strokeColor=#6c8ebf;" parent="1" vertex="1">
          <mxGeometry x="517.5" y="620" width="60" height="30" as="geometry" />
        </mxCell>
        <mxCell id="EPnAkS95bglsHTF8loIi-218" value="&lt;font style=&quot;font-size: 22px;&quot;&gt;T×C&lt;/font&gt;" style="rounded=0;whiteSpace=wrap;html=1;fillColor=default;strokeColor=#6c8ebf;" parent="1" vertex="1">
          <mxGeometry x="577.5" y="620" width="60" height="30" as="geometry" />
        </mxCell>
        <mxCell id="EPnAkS95bglsHTF8loIi-219" value="&lt;font style=&quot;font-size: 22px;&quot;&gt;T×C&lt;/font&gt;" style="rounded=0;whiteSpace=wrap;html=1;fillColor=default;strokeColor=#6c8ebf;" parent="1" vertex="1">
          <mxGeometry x="637.5" y="620" width="60" height="30" as="geometry" />
        </mxCell>
        <mxCell id="EPnAkS95bglsHTF8loIi-220" value="&lt;font style=&quot;font-size: 22px;&quot;&gt;T×C&lt;/font&gt;" style="rounded=0;whiteSpace=wrap;html=1;fillColor=default;strokeColor=#6c8ebf;" parent="1" vertex="1">
          <mxGeometry x="696.25" y="620" width="60" height="30" as="geometry" />
        </mxCell>
        <mxCell id="EPnAkS95bglsHTF8loIi-225" value="&lt;font style=&quot;font-size: 22px;&quot;&gt;T×C&lt;/font&gt;" style="rounded=0;whiteSpace=wrap;html=1;fillColor=default;strokeColor=#6c8ebf;" parent="1" vertex="1">
          <mxGeometry x="792.5" y="620" width="60" height="30" as="geometry" />
        </mxCell>
        <mxCell id="EPnAkS95bglsHTF8loIi-226" value="&lt;font style=&quot;font-size: 22px;&quot;&gt;C×H×W&lt;/font&gt;" style="rounded=0;whiteSpace=wrap;html=1;" parent="1" vertex="1">
          <mxGeometry x="425" y="754" width="90" height="30" as="geometry" />
        </mxCell>
        <mxCell id="EPnAkS95bglsHTF8loIi-227" value="&lt;font style=&quot;font-size: 22px;&quot;&gt;C×H×W&lt;/font&gt;" style="rounded=0;whiteSpace=wrap;html=1;" parent="1" vertex="1">
          <mxGeometry x="515" y="754" width="90" height="30" as="geometry" />
        </mxCell>
        <mxCell id="EPnAkS95bglsHTF8loIi-228" value="&lt;font style=&quot;font-size: 22px;&quot;&gt;C×H×W&lt;/font&gt;" style="rounded=0;whiteSpace=wrap;html=1;" parent="1" vertex="1">
          <mxGeometry x="605" y="754" width="90" height="30" as="geometry" />
        </mxCell>
        <mxCell id="EPnAkS95bglsHTF8loIi-229" value="&lt;font style=&quot;font-size: 22px;&quot;&gt;C×H×W&lt;/font&gt;" style="rounded=0;whiteSpace=wrap;html=1;" parent="1" vertex="1">
          <mxGeometry x="765" y="754" width="90" height="30" as="geometry" />
        </mxCell>
        <mxCell id="EPnAkS95bglsHTF8loIi-232" value="&lt;font style=&quot;font-size: 31px;&quot;&gt;...&lt;/font&gt;" style="text;html=1;align=center;verticalAlign=middle;whiteSpace=wrap;rounded=0;" parent="1" vertex="1">
          <mxGeometry x="717" y="754" width="30" height="20" as="geometry" />
        </mxCell>
        <mxCell id="EPnAkS95bglsHTF8loIi-250" style="edgeStyle=orthogonalEdgeStyle;rounded=0;orthogonalLoop=1;jettySize=auto;html=1;entryX=0.5;entryY=1;entryDx=0;entryDy=0;fillColor=#0050ef;strokeColor=#88ACE2;" parent="1" source="EPnAkS95bglsHTF8loIi-244" target="EPnAkS95bglsHTF8loIi-249" edge="1">
          <mxGeometry relative="1" as="geometry" />
        </mxCell>
        <mxCell id="EPnAkS95bglsHTF8loIi-244" value="&lt;font style=&quot;font-size: 22px;&quot;&gt;Up project&lt;/font&gt;" style="verticalLabelPosition=middle;verticalAlign=middle;html=1;shape=trapezoid;perimeter=trapezoidPerimeter;whiteSpace=wrap;size=0.23;arcSize=10;flipV=1;labelPosition=center;align=center;rotation=90;fillColor=#88ACE2;fontColor=#ffffff;strokeColor=#006EAF;" parent="1" vertex="1">
          <mxGeometry x="2770" y="885" width="150" height="50" as="geometry" />
        </mxCell>
        <mxCell id="EPnAkS95bglsHTF8loIi-253" style="edgeStyle=orthogonalEdgeStyle;rounded=0;orthogonalLoop=1;jettySize=auto;html=1;entryX=0.5;entryY=0;entryDx=0;entryDy=0;fillColor=#0050ef;strokeColor=#88ACE2;" parent="1" source="EPnAkS95bglsHTF8loIi-249" target="EPnAkS95bglsHTF8loIi-251" edge="1">
          <mxGeometry relative="1" as="geometry" />
        </mxCell>
        <mxCell id="EPnAkS95bglsHTF8loIi-249" value="&lt;font style=&quot;font-size: 22px;&quot;&gt;SiLU&lt;/font&gt;" style="ellipse;whiteSpace=wrap;html=1;aspect=fixed;rotation=90;fillColor=#88ACE2;fontColor=#ffffff;strokeColor=#006EAF;" parent="1" vertex="1">
          <mxGeometry x="2960" y="870" width="80" height="80" as="geometry" />
        </mxCell>
        <mxCell id="EPnAkS95bglsHTF8loIi-254" style="edgeStyle=orthogonalEdgeStyle;rounded=0;orthogonalLoop=1;jettySize=auto;html=1;entryX=0.5;entryY=1;entryDx=0;entryDy=0;fillColor=#0050ef;strokeColor=#88ACE2;" parent="1" source="EPnAkS95bglsHTF8loIi-251" target="EPnAkS95bglsHTF8loIi-57" edge="1">
          <mxGeometry relative="1" as="geometry" />
        </mxCell>
        <mxCell id="EPnAkS95bglsHTF8loIi-251" value="&lt;font style=&quot;font-size: 34px;&quot;&gt;×&lt;/font&gt;" style="ellipse;whiteSpace=wrap;html=1;aspect=fixed;fillColor=#88ACE2;fontColor=#ffffff;strokeColor=#006EAF;" parent="1" vertex="1">
          <mxGeometry x="3117.5" y="970" width="40" height="40" as="geometry" />
        </mxCell>
        <mxCell id="OTvhO7HlEmndQmb5VHHz-80" style="edgeStyle=orthogonalEdgeStyle;rounded=0;orthogonalLoop=1;jettySize=auto;html=1;entryX=0;entryY=0.25;entryDx=0;entryDy=0;" edge="1" parent="1" source="EPnAkS95bglsHTF8loIi-255" target="OTvhO7HlEmndQmb5VHHz-83">
          <mxGeometry relative="1" as="geometry">
            <mxPoint x="3380" y="1170" as="targetPoint" />
          </mxGeometry>
        </mxCell>
        <mxCell id="EPnAkS95bglsHTF8loIi-255" value="&lt;font style=&quot;font-size: 34px;&quot;&gt;+&lt;/font&gt;" style="ellipse;whiteSpace=wrap;html=1;aspect=fixed;fillColor=#88ACE2;fontColor=#ffffff;strokeColor=#006EAF;" parent="1" vertex="1">
          <mxGeometry x="3252.5" y="970" width="40" height="40" as="geometry" />
        </mxCell>
        <mxCell id="EPnAkS95bglsHTF8loIi-289" value="&lt;font style=&quot;font-size: 22px;&quot;&gt;t=1&lt;/font&gt;" style="text;html=1;align=center;verticalAlign=middle;whiteSpace=wrap;rounded=0;" parent="1" vertex="1">
          <mxGeometry x="351.25" y="790" width="60" height="20" as="geometry" />
        </mxCell>
        <mxCell id="EPnAkS95bglsHTF8loIi-290" value="&lt;font style=&quot;font-size: 22px;&quot;&gt;t=2&lt;/font&gt;" style="text;html=1;align=center;verticalAlign=middle;whiteSpace=wrap;rounded=0;" parent="1" vertex="1">
          <mxGeometry x="434.38" y="790" width="60" height="20" as="geometry" />
        </mxCell>
        <mxCell id="EPnAkS95bglsHTF8loIi-291" value="&lt;font style=&quot;font-size: 22px;&quot;&gt;t=3&lt;/font&gt;" style="text;html=1;align=center;verticalAlign=middle;whiteSpace=wrap;rounded=0;" parent="1" vertex="1">
          <mxGeometry x="531.25" y="790" width="60" height="20" as="geometry" />
        </mxCell>
        <mxCell id="EPnAkS95bglsHTF8loIi-292" value="&lt;font style=&quot;font-size: 22px;&quot;&gt;t=4&lt;/font&gt;" style="text;html=1;align=center;verticalAlign=middle;whiteSpace=wrap;rounded=0;" parent="1" vertex="1">
          <mxGeometry x="620" y="790" width="60" height="20" as="geometry" />
        </mxCell>
        <mxCell id="EPnAkS95bglsHTF8loIi-297" value="&lt;font style=&quot;font-size: 22px;&quot;&gt;t=T&lt;/font&gt;" style="text;html=1;align=center;verticalAlign=middle;whiteSpace=wrap;rounded=0;" parent="1" vertex="1">
          <mxGeometry x="781.25" y="790" width="60" height="20" as="geometry" />
        </mxCell>
        <mxCell id="EPnAkS95bglsHTF8loIi-298" value="&lt;font style=&quot;font-size: 22px;&quot;&gt;i=1&lt;/font&gt;" style="text;html=1;align=center;verticalAlign=middle;whiteSpace=wrap;rounded=0;fillColor=none;strokeColor=none;" parent="1" vertex="1">
          <mxGeometry x="335" y="655" width="60" height="20" as="geometry" />
        </mxCell>
        <mxCell id="EPnAkS95bglsHTF8loIi-299" value="&lt;font style=&quot;font-size: 22px;&quot;&gt;i=2&lt;/font&gt;" style="text;html=1;align=center;verticalAlign=middle;whiteSpace=wrap;rounded=0;fillColor=none;strokeColor=none;" parent="1" vertex="1">
          <mxGeometry x="397.5" y="655" width="60" height="20" as="geometry" />
        </mxCell>
        <mxCell id="EPnAkS95bglsHTF8loIi-300" value="&lt;font style=&quot;font-size: 22px;&quot;&gt;i=3&lt;/font&gt;" style="text;html=1;align=center;verticalAlign=middle;whiteSpace=wrap;rounded=0;fillColor=none;strokeColor=none;" parent="1" vertex="1">
          <mxGeometry x="457.5" y="655" width="60" height="20" as="geometry" />
        </mxCell>
        <mxCell id="EPnAkS95bglsHTF8loIi-301" value="&lt;font style=&quot;font-size: 22px;&quot;&gt;i=4&lt;/font&gt;" style="text;html=1;align=center;verticalAlign=middle;whiteSpace=wrap;rounded=0;fillColor=none;strokeColor=none;" parent="1" vertex="1">
          <mxGeometry x="517.5" y="655" width="60" height="20" as="geometry" />
        </mxCell>
        <mxCell id="EPnAkS95bglsHTF8loIi-302" value="&lt;font style=&quot;font-size: 22px;&quot;&gt;i=5&lt;/font&gt;" style="text;html=1;align=center;verticalAlign=middle;whiteSpace=wrap;rounded=0;fillColor=none;strokeColor=none;" parent="1" vertex="1">
          <mxGeometry x="577.5" y="655" width="60" height="20" as="geometry" />
        </mxCell>
        <mxCell id="EPnAkS95bglsHTF8loIi-303" value="&lt;font style=&quot;font-size: 22px;&quot;&gt;i=6&lt;/font&gt;" style="text;html=1;align=center;verticalAlign=middle;whiteSpace=wrap;rounded=0;fillColor=none;strokeColor=none;" parent="1" vertex="1">
          <mxGeometry x="637.5" y="655" width="60" height="20" as="geometry" />
        </mxCell>
        <mxCell id="EPnAkS95bglsHTF8loIi-304" value="&lt;font style=&quot;font-size: 22px;&quot;&gt;i=7&lt;/font&gt;" style="text;html=1;align=center;verticalAlign=middle;whiteSpace=wrap;rounded=0;fillColor=none;strokeColor=none;" parent="1" vertex="1">
          <mxGeometry x="696.25" y="655" width="60" height="20" as="geometry" />
        </mxCell>
        <mxCell id="EPnAkS95bglsHTF8loIi-305" value="&lt;font style=&quot;font-size: 19px;&quot;&gt;&lt;font style=&quot;&quot;&gt;i=H&lt;/font&gt;×W&lt;/font&gt;" style="text;html=1;align=center;verticalAlign=middle;whiteSpace=wrap;rounded=0;fillColor=none;strokeColor=none;" parent="1" vertex="1">
          <mxGeometry x="792.5" y="655" width="60" height="20" as="geometry" />
        </mxCell>
        <mxCell id="EPnAkS95bglsHTF8loIi-334" style="edgeStyle=orthogonalEdgeStyle;rounded=0;orthogonalLoop=1;jettySize=auto;html=1;entryX=0.5;entryY=1;entryDx=0;entryDy=0;" parent="1" source="EPnAkS95bglsHTF8loIi-306" target="EPnAkS95bglsHTF8loIi-322" edge="1">
          <mxGeometry relative="1" as="geometry" />
        </mxCell>
        <mxCell id="EPnAkS95bglsHTF8loIi-335" value="&lt;font style=&quot;font-size: 20px;&quot;&gt;Central Feature Extraction&lt;/font&gt;" style="edgeLabel;html=1;align=center;verticalAlign=middle;resizable=0;points=[];" parent="EPnAkS95bglsHTF8loIi-334" vertex="1" connectable="0">
          <mxGeometry x="-0.1145" y="2" relative="1" as="geometry">
            <mxPoint as="offset" />
          </mxGeometry>
        </mxCell>
        <mxCell id="EPnAkS95bglsHTF8loIi-306" value="" style="rounded=0;whiteSpace=wrap;html=1;fillColor=#dae8fc;strokeColor=#6c8ebf;" parent="1" vertex="1">
          <mxGeometry x="331" y="180" width="530" height="73.5" as="geometry" />
        </mxCell>
        <mxCell id="EPnAkS95bglsHTF8loIi-307" value="&lt;font style=&quot;font-size: 22px;&quot;&gt;H×W&lt;/font&gt;&lt;span style=&quot;font-size: 22px;&quot;&gt;×&lt;/span&gt;&lt;span style=&quot;font-size: 22px;&quot;&gt;C&lt;/span&gt;" style="rounded=0;whiteSpace=wrap;html=1;" parent="1" vertex="1">
          <mxGeometry x="336" y="191.5" width="90" height="30" as="geometry" />
        </mxCell>
        <mxCell id="EPnAkS95bglsHTF8loIi-308" value="&lt;font style=&quot;font-size: 22px;&quot;&gt;H×W&lt;/font&gt;&lt;span style=&quot;font-size: 22px;&quot;&gt;×&lt;/span&gt;&lt;span style=&quot;font-size: 22px;&quot;&gt;C&lt;/span&gt;" style="rounded=0;whiteSpace=wrap;html=1;" parent="1" vertex="1">
          <mxGeometry x="426" y="191.5" width="90" height="30" as="geometry" />
        </mxCell>
        <mxCell id="EPnAkS95bglsHTF8loIi-309" value="&lt;font style=&quot;font-size: 22px;&quot;&gt;H×W&lt;/font&gt;&lt;span style=&quot;font-size: 22px;&quot;&gt;×&lt;/span&gt;&lt;span style=&quot;font-size: 22px;&quot;&gt;C&lt;/span&gt;" style="rounded=0;whiteSpace=wrap;html=1;" parent="1" vertex="1">
          <mxGeometry x="516" y="191.5" width="90" height="30" as="geometry" />
        </mxCell>
        <mxCell id="EPnAkS95bglsHTF8loIi-310" value="&lt;font style=&quot;font-size: 22px;&quot;&gt;H×W&lt;/font&gt;&lt;span style=&quot;font-size: 22px;&quot;&gt;×&lt;/span&gt;&lt;span style=&quot;font-size: 22px;&quot;&gt;C&lt;/span&gt;" style="rounded=0;whiteSpace=wrap;html=1;" parent="1" vertex="1">
          <mxGeometry x="606" y="191.5" width="90" height="30" as="geometry" />
        </mxCell>
        <mxCell id="EPnAkS95bglsHTF8loIi-311" value="&lt;font style=&quot;font-size: 22px;&quot;&gt;H×W&lt;/font&gt;&lt;span style=&quot;font-size: 22px;&quot;&gt;×&lt;/span&gt;&lt;span style=&quot;font-size: 22px;&quot;&gt;C&lt;/span&gt;" style="rounded=0;whiteSpace=wrap;html=1;" parent="1" vertex="1">
          <mxGeometry x="766" y="191.5" width="90" height="30" as="geometry" />
        </mxCell>
        <mxCell id="EPnAkS95bglsHTF8loIi-312" value="&lt;font style=&quot;font-size: 31px;&quot;&gt;...&lt;/font&gt;" style="text;html=1;align=center;verticalAlign=middle;whiteSpace=wrap;rounded=0;" parent="1" vertex="1">
          <mxGeometry x="718" y="191.5" width="30" height="20" as="geometry" />
        </mxCell>
        <mxCell id="EPnAkS95bglsHTF8loIi-313" value="&lt;font style=&quot;font-size: 22px;&quot;&gt;t=1&lt;/font&gt;" style="text;html=1;align=center;verticalAlign=middle;whiteSpace=wrap;rounded=0;" parent="1" vertex="1">
          <mxGeometry x="352.25" y="227.5" width="60" height="20" as="geometry" />
        </mxCell>
        <mxCell id="EPnAkS95bglsHTF8loIi-314" value="&lt;font style=&quot;font-size: 22px;&quot;&gt;t=2&lt;/font&gt;" style="text;html=1;align=center;verticalAlign=middle;whiteSpace=wrap;rounded=0;" parent="1" vertex="1">
          <mxGeometry x="435.38" y="227.5" width="60" height="20" as="geometry" />
        </mxCell>
        <mxCell id="EPnAkS95bglsHTF8loIi-315" value="&lt;font style=&quot;font-size: 22px;&quot;&gt;t=3&lt;/font&gt;" style="text;html=1;align=center;verticalAlign=middle;whiteSpace=wrap;rounded=0;" parent="1" vertex="1">
          <mxGeometry x="532.25" y="227.5" width="60" height="20" as="geometry" />
        </mxCell>
        <mxCell id="EPnAkS95bglsHTF8loIi-316" value="&lt;font style=&quot;font-size: 22px;&quot;&gt;t=4&lt;/font&gt;" style="text;html=1;align=center;verticalAlign=middle;whiteSpace=wrap;rounded=0;" parent="1" vertex="1">
          <mxGeometry x="621" y="227.5" width="60" height="20" as="geometry" />
        </mxCell>
        <mxCell id="EPnAkS95bglsHTF8loIi-317" value="&lt;font style=&quot;font-size: 22px;&quot;&gt;t=T&lt;/font&gt;" style="text;html=1;align=center;verticalAlign=middle;whiteSpace=wrap;rounded=0;" parent="1" vertex="1">
          <mxGeometry x="782.25" y="227.5" width="60" height="20" as="geometry" />
        </mxCell>
        <mxCell id="EPnAkS95bglsHTF8loIi-337" style="edgeStyle=orthogonalEdgeStyle;rounded=0;orthogonalLoop=1;jettySize=auto;html=1;entryX=0.5;entryY=1;entryDx=0;entryDy=0;" parent="1" source="EPnAkS95bglsHTF8loIi-322" target="EPnAkS95bglsHTF8loIi-336" edge="1">
          <mxGeometry relative="1" as="geometry" />
        </mxCell>
        <mxCell id="EPnAkS95bglsHTF8loIi-322" value="" style="rounded=0;whiteSpace=wrap;html=1;fillColor=#799DCD;strokeColor=#4B658B;" parent="1" vertex="1">
          <mxGeometry x="331.25" y="56.5" width="530" height="73.5" as="geometry" />
        </mxCell>
        <mxCell id="EPnAkS95bglsHTF8loIi-323" value="&lt;span style=&quot;font-size: 22px;&quot;&gt;C&lt;/span&gt;" style="rounded=0;whiteSpace=wrap;html=1;" parent="1" vertex="1">
          <mxGeometry x="336.25" y="68" width="90" height="30" as="geometry" />
        </mxCell>
        <mxCell id="EPnAkS95bglsHTF8loIi-324" value="&lt;span style=&quot;font-size: 22px;&quot;&gt;C&lt;/span&gt;" style="rounded=0;whiteSpace=wrap;html=1;" parent="1" vertex="1">
          <mxGeometry x="426.25" y="68" width="90" height="30" as="geometry" />
        </mxCell>
        <mxCell id="EPnAkS95bglsHTF8loIi-325" value="&lt;span style=&quot;font-size: 22px;&quot;&gt;C&lt;/span&gt;" style="rounded=0;whiteSpace=wrap;html=1;" parent="1" vertex="1">
          <mxGeometry x="516.25" y="68" width="90" height="30" as="geometry" />
        </mxCell>
        <mxCell id="EPnAkS95bglsHTF8loIi-326" value="&lt;span style=&quot;font-size: 22px;&quot;&gt;C&lt;/span&gt;" style="rounded=0;whiteSpace=wrap;html=1;" parent="1" vertex="1">
          <mxGeometry x="606.25" y="68" width="90" height="30" as="geometry" />
        </mxCell>
        <mxCell id="EPnAkS95bglsHTF8loIi-327" value="&lt;span style=&quot;font-size: 22px;&quot;&gt;C&lt;/span&gt;" style="rounded=0;whiteSpace=wrap;html=1;" parent="1" vertex="1">
          <mxGeometry x="766.25" y="68" width="90" height="30" as="geometry" />
        </mxCell>
        <mxCell id="EPnAkS95bglsHTF8loIi-328" value="&lt;font style=&quot;font-size: 31px;&quot;&gt;...&lt;/font&gt;" style="text;html=1;align=center;verticalAlign=middle;whiteSpace=wrap;rounded=0;" parent="1" vertex="1">
          <mxGeometry x="718.25" y="68" width="30" height="20" as="geometry" />
        </mxCell>
        <mxCell id="EPnAkS95bglsHTF8loIi-329" value="&lt;font style=&quot;font-size: 22px;&quot;&gt;t=1&lt;/font&gt;" style="text;html=1;align=center;verticalAlign=middle;whiteSpace=wrap;rounded=0;fontColor=#FFFFFF;" parent="1" vertex="1">
          <mxGeometry x="352.5" y="104" width="60" height="20" as="geometry" />
        </mxCell>
        <mxCell id="EPnAkS95bglsHTF8loIi-330" value="&lt;font style=&quot;font-size: 22px;&quot;&gt;t=2&lt;/font&gt;" style="text;html=1;align=center;verticalAlign=middle;whiteSpace=wrap;rounded=0;fontColor=#FFFFFF;" parent="1" vertex="1">
          <mxGeometry x="435.63" y="104" width="60" height="20" as="geometry" />
        </mxCell>
        <mxCell id="EPnAkS95bglsHTF8loIi-331" value="&lt;font style=&quot;font-size: 22px;&quot;&gt;t=3&lt;/font&gt;" style="text;html=1;align=center;verticalAlign=middle;whiteSpace=wrap;rounded=0;fontColor=#FFFFFF;" parent="1" vertex="1">
          <mxGeometry x="532.5" y="104" width="60" height="20" as="geometry" />
        </mxCell>
        <mxCell id="EPnAkS95bglsHTF8loIi-332" value="&lt;font style=&quot;font-size: 22px;&quot;&gt;t=4&lt;/font&gt;" style="text;html=1;align=center;verticalAlign=middle;whiteSpace=wrap;rounded=0;fontColor=#FFFFFF;" parent="1" vertex="1">
          <mxGeometry x="621.25" y="104" width="60" height="20" as="geometry" />
        </mxCell>
        <mxCell id="EPnAkS95bglsHTF8loIi-333" value="&lt;font style=&quot;font-size: 22px;&quot;&gt;t=T&lt;/font&gt;" style="text;html=1;align=center;verticalAlign=middle;whiteSpace=wrap;rounded=0;fontColor=#FFFFFF;" parent="1" vertex="1">
          <mxGeometry x="782.5" y="104" width="60" height="20" as="geometry" />
        </mxCell>
        <mxCell id="EPnAkS95bglsHTF8loIi-373" style="edgeStyle=orthogonalEdgeStyle;rounded=0;orthogonalLoop=1;jettySize=auto;html=1;entryX=0.5;entryY=1;entryDx=0;entryDy=0;" parent="1" source="EPnAkS95bglsHTF8loIi-336" target="EPnAkS95bglsHTF8loIi-361" edge="1">
          <mxGeometry relative="1" as="geometry" />
        </mxCell>
        <mxCell id="EPnAkS95bglsHTF8loIi-336" value="&lt;font style=&quot;font-size: 22px;&quot;&gt;Temporal Attention (Aggregation over T)&lt;/font&gt;" style="rounded=1;whiteSpace=wrap;html=1;fillColor=#536C8E;fontColor=#ffffff;strokeColor=#001DBC;" parent="1" vertex="1">
          <mxGeometry x="331" y="-3" width="530" height="40" as="geometry" />
        </mxCell>
        <mxCell id="EPnAkS95bglsHTF8loIi-350" value="&lt;span style=&quot;font-size: 22px;&quot;&gt;1×&lt;/span&gt;&lt;span style=&quot;font-size: 22px;&quot;&gt;C&lt;/span&gt;" style="text;html=1;align=center;verticalAlign=middle;whiteSpace=wrap;rounded=0;" parent="1" vertex="1">
          <mxGeometry x="345" y="-48" width="50" height="20" as="geometry" />
        </mxCell>
        <mxCell id="EPnAkS95bglsHTF8loIi-355" value="" style="rounded=0;whiteSpace=wrap;html=1;fillColor=#536C8E;fontColor=#ffffff;strokeColor=#FFFFFF;" parent="1" vertex="1">
          <mxGeometry x="401.25" y="-53" width="30" height="30" as="geometry" />
        </mxCell>
        <mxCell id="EPnAkS95bglsHTF8loIi-356" value="" style="rounded=0;whiteSpace=wrap;html=1;fillColor=#536C8E;fontColor=#ffffff;strokeColor=#FFFFFF;" parent="1" vertex="1">
          <mxGeometry x="431.25" y="-53" width="30" height="30" as="geometry" />
        </mxCell>
        <mxCell id="EPnAkS95bglsHTF8loIi-357" value="" style="rounded=0;whiteSpace=wrap;html=1;fillColor=#536C8E;fontColor=#ffffff;strokeColor=#FFFFFF;" parent="1" vertex="1">
          <mxGeometry x="461.25" y="-53" width="30" height="30" as="geometry" />
        </mxCell>
        <mxCell id="EPnAkS95bglsHTF8loIi-358" value="" style="rounded=0;whiteSpace=wrap;html=1;fillColor=#536C8E;fontColor=#ffffff;strokeColor=#FFFFFF;" parent="1" vertex="1">
          <mxGeometry x="491.24999999999994" y="-53" width="30" height="30" as="geometry" />
        </mxCell>
        <mxCell id="EPnAkS95bglsHTF8loIi-359" value="" style="rounded=0;whiteSpace=wrap;html=1;fillColor=#536C8E;fontColor=#ffffff;strokeColor=#FFFFFF;" parent="1" vertex="1">
          <mxGeometry x="521.25" y="-53" width="30" height="30" as="geometry" />
        </mxCell>
        <mxCell id="EPnAkS95bglsHTF8loIi-360" value="" style="rounded=0;whiteSpace=wrap;html=1;fillColor=#536C8E;fontColor=#ffffff;strokeColor=#FFFFFF;" parent="1" vertex="1">
          <mxGeometry x="551.25" y="-53" width="30" height="30" as="geometry" />
        </mxCell>
        <mxCell id="EPnAkS95bglsHTF8loIi-445" style="edgeStyle=orthogonalEdgeStyle;rounded=0;orthogonalLoop=1;jettySize=auto;html=1;entryX=0.5;entryY=1;entryDx=0;entryDy=0;" parent="1" source="EPnAkS95bglsHTF8loIi-361" target="EPnAkS95bglsHTF8loIi-436" edge="1">
          <mxGeometry relative="1" as="geometry">
            <Array as="points">
              <mxPoint x="595" y="-53" />
              <mxPoint x="595" y="-53" />
            </Array>
          </mxGeometry>
        </mxCell>
        <mxCell id="EPnAkS95bglsHTF8loIi-361" value="" style="rounded=0;whiteSpace=wrap;html=1;fillColor=#536C8E;fontColor=#ffffff;strokeColor=#FFFFFF;" parent="1" vertex="1">
          <mxGeometry x="581.25" y="-53" width="30" height="30" as="geometry" />
        </mxCell>
        <mxCell id="EPnAkS95bglsHTF8loIi-362" value="" style="rounded=0;whiteSpace=wrap;html=1;fillColor=#536C8E;fontColor=#ffffff;strokeColor=#FFFFFF;" parent="1" vertex="1">
          <mxGeometry x="611.25" y="-53" width="30" height="30" as="geometry" />
        </mxCell>
        <mxCell id="EPnAkS95bglsHTF8loIi-363" value="" style="rounded=0;whiteSpace=wrap;html=1;fillColor=#536C8E;fontColor=#ffffff;strokeColor=#FFFFFF;" parent="1" vertex="1">
          <mxGeometry x="641.25" y="-53" width="30" height="30" as="geometry" />
        </mxCell>
        <mxCell id="EPnAkS95bglsHTF8loIi-364" value="" style="rounded=0;whiteSpace=wrap;html=1;fillColor=#536C8E;fontColor=#ffffff;strokeColor=#FFFFFF;" parent="1" vertex="1">
          <mxGeometry x="671.25" y="-53" width="30" height="30" as="geometry" />
        </mxCell>
        <mxCell id="EPnAkS95bglsHTF8loIi-365" value="" style="rounded=0;whiteSpace=wrap;html=1;fillColor=#536C8E;fontColor=#ffffff;strokeColor=#FFFFFF;" parent="1" vertex="1">
          <mxGeometry x="701.25" y="-53" width="27.5" height="30" as="geometry" />
        </mxCell>
        <mxCell id="EPnAkS95bglsHTF8loIi-366" value="" style="rounded=0;whiteSpace=wrap;html=1;fillColor=#536C8E;fontColor=#ffffff;strokeColor=#FFFFFF;" parent="1" vertex="1">
          <mxGeometry x="728.75" y="-53" width="30" height="30" as="geometry" />
        </mxCell>
        <mxCell id="EPnAkS95bglsHTF8loIi-392" value="" style="ellipse;whiteSpace=wrap;html=1;aspect=fixed;fillColor=#131313;" parent="1" vertex="1">
          <mxGeometry x="404.25" y="-103" width="20" height="20" as="geometry" />
        </mxCell>
        <mxCell id="EPnAkS95bglsHTF8loIi-393" value="" style="ellipse;whiteSpace=wrap;html=1;aspect=fixed;fillColor=#131313;" parent="1" vertex="1">
          <mxGeometry x="434.25" y="-103" width="20" height="20" as="geometry" />
        </mxCell>
        <mxCell id="EPnAkS95bglsHTF8loIi-403" value="" style="ellipse;whiteSpace=wrap;html=1;aspect=fixed;fillColor=#131313;" parent="1" vertex="1">
          <mxGeometry x="464.25" y="-103" width="20" height="20" as="geometry" />
        </mxCell>
        <mxCell id="EPnAkS95bglsHTF8loIi-404" value="" style="ellipse;whiteSpace=wrap;html=1;aspect=fixed;fillColor=#131313;" parent="1" vertex="1">
          <mxGeometry x="494.25" y="-103" width="20" height="20" as="geometry" />
        </mxCell>
        <mxCell id="EPnAkS95bglsHTF8loIi-405" value="" style="ellipse;whiteSpace=wrap;html=1;aspect=fixed;fillColor=#131313;" parent="1" vertex="1">
          <mxGeometry x="525.5" y="-103" width="20" height="20" as="geometry" />
        </mxCell>
        <mxCell id="EPnAkS95bglsHTF8loIi-406" value="" style="ellipse;whiteSpace=wrap;html=1;aspect=fixed;fillColor=#131313;" parent="1" vertex="1">
          <mxGeometry x="555.5" y="-103" width="20" height="20" as="geometry" />
        </mxCell>
        <mxCell id="EPnAkS95bglsHTF8loIi-407" value="" style="ellipse;whiteSpace=wrap;html=1;aspect=fixed;fillColor=#131313;" parent="1" vertex="1">
          <mxGeometry x="585.5" y="-103" width="20" height="20" as="geometry" />
        </mxCell>
        <mxCell id="EPnAkS95bglsHTF8loIi-408" value="" style="ellipse;whiteSpace=wrap;html=1;aspect=fixed;fillColor=#131313;" parent="1" vertex="1">
          <mxGeometry x="615.5" y="-103" width="20" height="20" as="geometry" />
        </mxCell>
        <mxCell id="EPnAkS95bglsHTF8loIi-409" value="" style="ellipse;whiteSpace=wrap;html=1;aspect=fixed;fillColor=#131313;" parent="1" vertex="1">
          <mxGeometry x="644.25" y="-103" width="20" height="20" as="geometry" />
        </mxCell>
        <mxCell id="EPnAkS95bglsHTF8loIi-410" value="" style="ellipse;whiteSpace=wrap;html=1;aspect=fixed;fillColor=#131313;" parent="1" vertex="1">
          <mxGeometry x="674.25" y="-103" width="20" height="20" as="geometry" />
        </mxCell>
        <mxCell id="EPnAkS95bglsHTF8loIi-411" value="" style="ellipse;whiteSpace=wrap;html=1;aspect=fixed;fillColor=#131313;" parent="1" vertex="1">
          <mxGeometry x="704.25" y="-103" width="20" height="20" as="geometry" />
        </mxCell>
        <mxCell id="EPnAkS95bglsHTF8loIi-412" value="" style="ellipse;whiteSpace=wrap;html=1;aspect=fixed;fillColor=#131313;" parent="1" vertex="1">
          <mxGeometry x="734.25" y="-103" width="20" height="20" as="geometry" />
        </mxCell>
        <mxCell id="EPnAkS95bglsHTF8loIi-413" value="" style="ellipse;whiteSpace=wrap;html=1;aspect=fixed;fillColor=#131313;" parent="1" vertex="1">
          <mxGeometry x="764.25" y="-103" width="20" height="20" as="geometry" />
        </mxCell>
        <mxCell id="EPnAkS95bglsHTF8loIi-422" value="" style="ellipse;whiteSpace=wrap;html=1;aspect=fixed;fillColor=#131313;" parent="1" vertex="1">
          <mxGeometry x="434.25" y="-129" width="20" height="20" as="geometry" />
        </mxCell>
        <mxCell id="EPnAkS95bglsHTF8loIi-423" value="" style="ellipse;whiteSpace=wrap;html=1;aspect=fixed;fillColor=#131313;" parent="1" vertex="1">
          <mxGeometry x="464.25" y="-129" width="20" height="20" as="geometry" />
        </mxCell>
        <mxCell id="EPnAkS95bglsHTF8loIi-424" value="" style="ellipse;whiteSpace=wrap;html=1;aspect=fixed;fillColor=#131313;" parent="1" vertex="1">
          <mxGeometry x="493.25" y="-130" width="22" height="22" as="geometry" />
        </mxCell>
        <mxCell id="EPnAkS95bglsHTF8loIi-425" value="" style="ellipse;whiteSpace=wrap;html=1;aspect=fixed;fillColor=#131313;" parent="1" vertex="1">
          <mxGeometry x="525.5" y="-129" width="20" height="20" as="geometry" />
        </mxCell>
        <mxCell id="EPnAkS95bglsHTF8loIi-426" value="" style="ellipse;whiteSpace=wrap;html=1;aspect=fixed;fillColor=#131313;" parent="1" vertex="1">
          <mxGeometry x="555.5" y="-129" width="20" height="20" as="geometry" />
        </mxCell>
        <mxCell id="EPnAkS95bglsHTF8loIi-427" value="" style="ellipse;whiteSpace=wrap;html=1;aspect=fixed;fillColor=#131313;" parent="1" vertex="1">
          <mxGeometry x="585.5" y="-129" width="20" height="20" as="geometry" />
        </mxCell>
        <mxCell id="EPnAkS95bglsHTF8loIi-428" value="" style="ellipse;whiteSpace=wrap;html=1;aspect=fixed;fillColor=#131313;" parent="1" vertex="1">
          <mxGeometry x="615.5" y="-129" width="20" height="20" as="geometry" />
        </mxCell>
        <mxCell id="EPnAkS95bglsHTF8loIi-429" value="" style="ellipse;whiteSpace=wrap;html=1;aspect=fixed;fillColor=#131313;" parent="1" vertex="1">
          <mxGeometry x="644.25" y="-129" width="20" height="20" as="geometry" />
        </mxCell>
        <mxCell id="EPnAkS95bglsHTF8loIi-430" value="" style="ellipse;whiteSpace=wrap;html=1;aspect=fixed;fillColor=#131313;" parent="1" vertex="1">
          <mxGeometry x="674.25" y="-129" width="20" height="20" as="geometry" />
        </mxCell>
        <mxCell id="EPnAkS95bglsHTF8loIi-431" value="" style="ellipse;whiteSpace=wrap;html=1;aspect=fixed;fillColor=#131313;" parent="1" vertex="1">
          <mxGeometry x="704.25" y="-129" width="20" height="20" as="geometry" />
        </mxCell>
        <mxCell id="EPnAkS95bglsHTF8loIi-432" value="" style="ellipse;whiteSpace=wrap;html=1;aspect=fixed;fillColor=#131313;" parent="1" vertex="1">
          <mxGeometry x="734.25" y="-129" width="20" height="20" as="geometry" />
        </mxCell>
        <mxCell id="EPnAkS95bglsHTF8loIi-433" value="" style="ellipse;whiteSpace=wrap;html=1;aspect=fixed;fillColor=#131313;" parent="1" vertex="1">
          <mxGeometry x="585.5" y="-154" width="20" height="20" as="geometry" />
        </mxCell>
        <mxCell id="EPnAkS95bglsHTF8loIi-435" value="&lt;font style=&quot;font-size: 22px;&quot;&gt;Output&lt;/font&gt;" style="ellipse;whiteSpace=wrap;html=1;fillColor=light-dark(#2e2e2e, #1a1a1a);strokeColor=#666666;fontColor=#D5D5D5;" parent="1" vertex="1">
          <mxGeometry x="547.5" y="-240" width="95" height="60" as="geometry" />
        </mxCell>
        <mxCell id="EPnAkS95bglsHTF8loIi-438" value="" style="rounded=0;whiteSpace=wrap;html=1;fillColor=#536C8E;fontColor=#ffffff;strokeColor=#FFFFFF;" parent="1" vertex="1">
          <mxGeometry x="758.75" y="-53" width="30" height="30" as="geometry" />
        </mxCell>
        <mxCell id="EPnAkS95bglsHTF8loIi-439" value="&lt;font style=&quot;font-size: 19px;&quot;&gt;MLP&lt;/font&gt;&lt;div&gt;&lt;font style=&quot;font-size: 19px;&quot;&gt;with ReLU&lt;/font&gt;&lt;/div&gt;" style="text;html=1;align=center;verticalAlign=middle;whiteSpace=wrap;rounded=0;" parent="1" vertex="1">
          <mxGeometry x="342.5" y="-154" width="50" height="77.5" as="geometry" />
        </mxCell>
        <mxCell id="EPnAkS95bglsHTF8loIi-452" value="&lt;font style=&quot;font-size: 24px;&quot;&gt;Input&amp;nbsp;&lt;/font&gt;&lt;div&gt;&lt;font style=&quot;font-size: 24px;&quot;&gt;Sentinel-1 Image&lt;/font&gt;&lt;/div&gt;" style="text;html=1;align=center;verticalAlign=middle;whiteSpace=wrap;rounded=0;" parent="1" vertex="1">
          <mxGeometry x="1489.56" y="-199.82000000000005" width="213.38" height="69.82" as="geometry" />
        </mxCell>
        <mxCell id="EPnAkS95bglsHTF8loIi-455" value="&lt;font style=&quot;font-size: 26px;&quot;&gt;Encoding Layer&amp;nbsp;×N&lt;/font&gt;" style="text;html=1;align=center;verticalAlign=middle;whiteSpace=wrap;rounded=0;rotation=90;" parent="1" vertex="1">
          <mxGeometry x="730" y="567" width="321" height="30" as="geometry" />
        </mxCell>
        <mxCell id="6HkCY5qnbnnG2yOAfGwD-1" value="&lt;font style=&quot;font-size: 33px;&quot;&gt;Conv2d&lt;/font&gt;&lt;div&gt;&lt;font style=&quot;font-size: 33px;&quot;&gt;(C&lt;sub style=&quot;&quot;&gt;out&lt;/sub&gt;: 96)&lt;/font&gt;&lt;/div&gt;" style="rounded=1;whiteSpace=wrap;html=1;fillColor=#698A6B;fontColor=#ffffff;strokeColor=#005700;rotation=0;" parent="1" vertex="1">
          <mxGeometry x="1215.01" y="779.32" width="180" height="104" as="geometry" />
        </mxCell>
        <mxCell id="6HkCY5qnbnnG2yOAfGwD-4" value="&lt;div&gt;&lt;font style=&quot;font-size: 20px;&quot;&gt;Permute&lt;/font&gt;&lt;/div&gt;" style="edgeLabel;html=1;align=center;verticalAlign=middle;resizable=0;points=[];" parent="1" vertex="1" connectable="0">
          <mxGeometry x="1163" y="809" as="geometry" />
        </mxCell>
        <mxCell id="6HkCY5qnbnnG2yOAfGwD-10" value="&lt;font style=&quot;font-size: 33px;&quot;&gt;96×(H/2)×(W/2)&lt;/font&gt;" style="rounded=0;whiteSpace=wrap;html=1;dashed=1;fillColor=#B4DDC7;strokeColor=#82B366;" parent="1" vertex="1">
          <mxGeometry x="1180" y="913.82" width="260" height="80" as="geometry" />
        </mxCell>
        <mxCell id="6HkCY5qnbnnG2yOAfGwD-14" value="&lt;font style=&quot;font-size: 33px;&quot;&gt;Conv2d&lt;/font&gt;&lt;div&gt;&lt;font style=&quot;font-size: 33px;&quot;&gt;(C&lt;sub style=&quot;&quot;&gt;out&lt;/sub&gt;: 192)&lt;/font&gt;&lt;/div&gt;" style="rounded=1;whiteSpace=wrap;html=1;fillColor=#698A6B;fontColor=#ffffff;strokeColor=#005700;rotation=0;" parent="1" vertex="1">
          <mxGeometry x="1215.01" y="1040" width="180" height="104" as="geometry" />
        </mxCell>
        <mxCell id="6HkCY5qnbnnG2yOAfGwD-16" value="&lt;font style=&quot;font-size: 33px;&quot;&gt;192×(H/4)×(W/4)&lt;/font&gt;" style="rounded=0;whiteSpace=wrap;html=1;dashed=1;fillColor=#B4DDC7;strokeColor=#82B366;" parent="1" vertex="1">
          <mxGeometry x="1180.01" y="1190" width="259.99" height="80" as="geometry" />
        </mxCell>
        <mxCell id="6HkCY5qnbnnG2yOAfGwD-18" value="&lt;font style=&quot;font-size: 33px;&quot;&gt;Conv2d&lt;/font&gt;&lt;div&gt;&lt;font style=&quot;font-size: 33px;&quot;&gt;(C&lt;sub style=&quot;&quot;&gt;out&lt;/sub&gt;: 384)&lt;/font&gt;&lt;/div&gt;" style="rounded=1;whiteSpace=wrap;html=1;fillColor=#698A6B;fontColor=#ffffff;strokeColor=#005700;rotation=0;" parent="1" vertex="1">
          <mxGeometry x="1215.02" y="1320" width="180" height="104" as="geometry" />
        </mxCell>
        <mxCell id="6HkCY5qnbnnG2yOAfGwD-20" value="&lt;font style=&quot;font-size: 33px;&quot;&gt;384×(H/8)×(W/8)&lt;/font&gt;" style="rounded=0;whiteSpace=wrap;html=1;dashed=1;fillColor=#B4DDC7;strokeColor=#82B366;" parent="1" vertex="1">
          <mxGeometry x="1180" y="1480" width="260" height="80" as="geometry" />
        </mxCell>
        <mxCell id="6HkCY5qnbnnG2yOAfGwD-23" value="&lt;font style=&quot;font-size: 22px;&quot;&gt;Down project&lt;/font&gt;" style="verticalLabelPosition=middle;verticalAlign=middle;html=1;shape=trapezoid;perimeter=trapezoidPerimeter;whiteSpace=wrap;size=0.23;arcSize=10;flipV=1;labelPosition=center;align=center;rotation=0;fillColor=#88ACE2;fontColor=#ffffff;strokeColor=#006EAF;" parent="1" vertex="1">
          <mxGeometry x="1480" y="1060" width="211.25" height="40" as="geometry" />
        </mxCell>
        <mxCell id="6HkCY5qnbnnG2yOAfGwD-27" value="&lt;font style=&quot;font-size: 33px;&quot;&gt;Conv2d&lt;/font&gt;&lt;div&gt;&lt;font style=&quot;font-size: 33px;&quot;&gt;(C&lt;sub style=&quot;&quot;&gt;out&lt;/sub&gt;: 768)&lt;/font&gt;&lt;/div&gt;" style="rounded=1;whiteSpace=wrap;html=1;fillColor=#698A6B;fontColor=#ffffff;strokeColor=#005700;rotation=0;" parent="1" vertex="1">
          <mxGeometry x="1255.02" y="1590" width="180" height="104" as="geometry" />
        </mxCell>
        <mxCell id="6HkCY5qnbnnG2yOAfGwD-28" value="&lt;font style=&quot;font-size: 33px;&quot;&gt;768×(H/8)×(W/8)&lt;/font&gt;" style="rounded=0;whiteSpace=wrap;html=1;dashed=1;fillColor=#B4DDC7;strokeColor=#82B366;" parent="1" vertex="1">
          <mxGeometry x="1230" y="1790" width="260" height="80" as="geometry" />
        </mxCell>
        <mxCell id="6HkCY5qnbnnG2yOAfGwD-29" style="edgeStyle=orthogonalEdgeStyle;rounded=0;orthogonalLoop=1;jettySize=auto;html=1;entryX=0.5;entryY=1;entryDx=0;entryDy=0;fillColor=#0050ef;strokeColor=#88ACE2;" parent="1" source="6HkCY5qnbnnG2yOAfGwD-30" target="6HkCY5qnbnnG2yOAfGwD-32" edge="1">
          <mxGeometry relative="1" as="geometry" />
        </mxCell>
        <mxCell id="6HkCY5qnbnnG2yOAfGwD-30" value="&lt;font style=&quot;font-size: 22px;&quot;&gt;Convolution&lt;/font&gt;" style="rounded=1;whiteSpace=wrap;html=1;rotation=90;fillColor=#88ACE2;fontColor=#ffffff;strokeColor=#006EAF;" parent="1" vertex="1">
          <mxGeometry x="2851.25" y="1378" width="126.25" height="40" as="geometry" />
        </mxCell>
        <mxCell id="6HkCY5qnbnnG2yOAfGwD-31" style="edgeStyle=orthogonalEdgeStyle;rounded=0;orthogonalLoop=1;jettySize=auto;html=1;fillColor=#0050ef;strokeColor=#88ACE2;" parent="1" source="6HkCY5qnbnnG2yOAfGwD-32" target="6HkCY5qnbnnG2yOAfGwD-34" edge="1">
          <mxGeometry relative="1" as="geometry" />
        </mxCell>
        <mxCell id="6HkCY5qnbnnG2yOAfGwD-32" value="&lt;font style=&quot;font-size: 22px;&quot;&gt;SiLU&lt;/font&gt;" style="ellipse;whiteSpace=wrap;html=1;aspect=fixed;rotation=90;fillColor=#88ACE2;fontColor=#ffffff;strokeColor=#006EAF;" parent="1" vertex="1">
          <mxGeometry x="2960" y="1358" width="80" height="80" as="geometry" />
        </mxCell>
        <mxCell id="6HkCY5qnbnnG2yOAfGwD-33" style="edgeStyle=orthogonalEdgeStyle;rounded=0;orthogonalLoop=1;jettySize=auto;html=1;entryX=0.5;entryY=1;entryDx=0;entryDy=0;fillColor=#0050ef;strokeColor=#88ACE2;" parent="1" source="6HkCY5qnbnnG2yOAfGwD-34" target="6HkCY5qnbnnG2yOAfGwD-45" edge="1">
          <mxGeometry relative="1" as="geometry">
            <Array as="points" />
          </mxGeometry>
        </mxCell>
        <mxCell id="6HkCY5qnbnnG2yOAfGwD-34" value="&lt;font style=&quot;font-size: 22px;&quot;&gt;Selective SSM&lt;/font&gt;" style="rounded=1;whiteSpace=wrap;html=1;rotation=90;fillColor=#88ACE2;fontColor=#ffffff;strokeColor=#006EAF;" parent="1" vertex="1">
          <mxGeometry x="2997.5" y="1378" width="170" height="40" as="geometry" />
        </mxCell>
        <mxCell id="6HkCY5qnbnnG2yOAfGwD-35" style="edgeStyle=orthogonalEdgeStyle;rounded=0;orthogonalLoop=1;jettySize=auto;html=1;entryX=0.5;entryY=1;entryDx=0;entryDy=0;fillColor=#0050ef;strokeColor=#88ACE2;" parent="1" source="6HkCY5qnbnnG2yOAfGwD-36" target="6HkCY5qnbnnG2yOAfGwD-30" edge="1">
          <mxGeometry relative="1" as="geometry" />
        </mxCell>
        <mxCell id="6HkCY5qnbnnG2yOAfGwD-36" value="&lt;font style=&quot;font-size: 22px;&quot;&gt;Up project&lt;/font&gt;" style="verticalLabelPosition=middle;verticalAlign=middle;html=1;shape=trapezoid;perimeter=trapezoidPerimeter;whiteSpace=wrap;size=0.23;arcSize=10;flipV=1;labelPosition=center;align=center;rotation=90;fillColor=#88ACE2;fontColor=#ffffff;strokeColor=#006EAF;" parent="1" vertex="1">
          <mxGeometry x="2770" y="1373" width="150" height="50" as="geometry" />
        </mxCell>
        <mxCell id="6HkCY5qnbnnG2yOAfGwD-37" style="edgeStyle=orthogonalEdgeStyle;rounded=0;orthogonalLoop=1;jettySize=auto;html=1;entryX=0;entryY=0.5;entryDx=0;entryDy=0;fillColor=#0050ef;strokeColor=#88ACE2;" parent="1" source="6HkCY5qnbnnG2yOAfGwD-38" target="6HkCY5qnbnnG2yOAfGwD-46" edge="1">
          <mxGeometry relative="1" as="geometry" />
        </mxCell>
        <mxCell id="6HkCY5qnbnnG2yOAfGwD-38" value="&lt;font style=&quot;font-size: 22px;&quot;&gt;Down Project&lt;/font&gt;" style="shape=trapezoid;perimeter=trapezoidPerimeter;whiteSpace=wrap;html=1;fixedSize=1;rotation=90;fillColor=#88ACE2;fontColor=#ffffff;strokeColor=#006EAF;" parent="1" vertex="1">
          <mxGeometry x="3107.5" y="1303" width="175" height="40" as="geometry" />
        </mxCell>
        <mxCell id="6HkCY5qnbnnG2yOAfGwD-39" style="edgeStyle=orthogonalEdgeStyle;rounded=0;orthogonalLoop=1;jettySize=auto;html=1;exitX=0.5;exitY=1;exitDx=0;exitDy=0;fillColor=#0050ef;strokeColor=#001DBC;" parent="1" edge="1">
          <mxGeometry relative="1" as="geometry">
            <mxPoint x="3052.5" y="1327.33" as="sourcePoint" />
            <mxPoint x="3052.5" y="1327.33" as="targetPoint" />
          </mxGeometry>
        </mxCell>
        <mxCell id="6HkCY5qnbnnG2yOAfGwD-40" style="edgeStyle=orthogonalEdgeStyle;rounded=0;orthogonalLoop=1;jettySize=auto;html=1;entryX=0.5;entryY=1;entryDx=0;entryDy=0;fillColor=#0050ef;strokeColor=#88ACE2;" parent="1" source="6HkCY5qnbnnG2yOAfGwD-41" target="6HkCY5qnbnnG2yOAfGwD-43" edge="1">
          <mxGeometry relative="1" as="geometry" />
        </mxCell>
        <mxCell id="6HkCY5qnbnnG2yOAfGwD-41" value="&lt;font style=&quot;font-size: 22px;&quot;&gt;Up project&lt;/font&gt;" style="verticalLabelPosition=middle;verticalAlign=middle;html=1;shape=trapezoid;perimeter=trapezoidPerimeter;whiteSpace=wrap;size=0.23;arcSize=10;flipV=1;labelPosition=center;align=center;rotation=90;fillColor=#88ACE2;fontColor=#ffffff;strokeColor=#006EAF;" parent="1" vertex="1">
          <mxGeometry x="2770" y="1218" width="150" height="50" as="geometry" />
        </mxCell>
        <mxCell id="6HkCY5qnbnnG2yOAfGwD-42" style="edgeStyle=orthogonalEdgeStyle;rounded=0;orthogonalLoop=1;jettySize=auto;html=1;entryX=0.5;entryY=0;entryDx=0;entryDy=0;fillColor=#0050ef;strokeColor=#88ACE2;" parent="1" source="6HkCY5qnbnnG2yOAfGwD-43" target="6HkCY5qnbnnG2yOAfGwD-45" edge="1">
          <mxGeometry relative="1" as="geometry" />
        </mxCell>
        <mxCell id="6HkCY5qnbnnG2yOAfGwD-43" value="&lt;font style=&quot;font-size: 22px;&quot;&gt;SiLU&lt;/font&gt;" style="ellipse;whiteSpace=wrap;html=1;aspect=fixed;rotation=90;fillColor=#88ACE2;fontColor=#ffffff;strokeColor=#006EAF;" parent="1" vertex="1">
          <mxGeometry x="2960" y="1203" width="80" height="80" as="geometry" />
        </mxCell>
        <mxCell id="6HkCY5qnbnnG2yOAfGwD-44" style="edgeStyle=orthogonalEdgeStyle;rounded=0;orthogonalLoop=1;jettySize=auto;html=1;entryX=0.5;entryY=1;entryDx=0;entryDy=0;fillColor=#0050ef;strokeColor=#88ACE2;" parent="1" source="6HkCY5qnbnnG2yOAfGwD-45" target="6HkCY5qnbnnG2yOAfGwD-38" edge="1">
          <mxGeometry relative="1" as="geometry" />
        </mxCell>
        <mxCell id="6HkCY5qnbnnG2yOAfGwD-45" value="&lt;font style=&quot;font-size: 34px;&quot;&gt;×&lt;/font&gt;" style="ellipse;whiteSpace=wrap;html=1;aspect=fixed;fillColor=#88ACE2;fontColor=#ffffff;strokeColor=#006EAF;" parent="1" vertex="1">
          <mxGeometry x="3117.5" y="1303" width="40" height="40" as="geometry" />
        </mxCell>
        <mxCell id="OTvhO7HlEmndQmb5VHHz-81" style="edgeStyle=orthogonalEdgeStyle;rounded=0;orthogonalLoop=1;jettySize=auto;html=1;entryX=0.004;entryY=0.644;entryDx=0;entryDy=0;entryPerimeter=0;" edge="1" parent="1" source="6HkCY5qnbnnG2yOAfGwD-46" target="OTvhO7HlEmndQmb5VHHz-83">
          <mxGeometry relative="1" as="geometry">
            <mxPoint x="3380" y="1210" as="targetPoint" />
          </mxGeometry>
        </mxCell>
        <mxCell id="6HkCY5qnbnnG2yOAfGwD-46" value="&lt;font style=&quot;font-size: 34px;&quot;&gt;+&lt;/font&gt;" style="ellipse;whiteSpace=wrap;html=1;aspect=fixed;fillColor=#88ACE2;fontColor=#ffffff;strokeColor=#006EAF;" parent="1" vertex="1">
          <mxGeometry x="3252.5" y="1303" width="40" height="40" as="geometry" />
        </mxCell>
        <mxCell id="6HkCY5qnbnnG2yOAfGwD-47" value="&lt;font style=&quot;font-size: 22px; color: rgb(95, 120, 158);&quot;&gt;&lt;b&gt;Mamba&lt;/b&gt;&lt;/font&gt;&lt;div&gt;&lt;font style=&quot;font-size: 22px; color: rgb(95, 120, 158);&quot;&gt;&lt;b&gt;(Backward)&lt;/b&gt;&lt;/font&gt;&lt;/div&gt;" style="text;html=1;align=center;verticalAlign=middle;whiteSpace=wrap;rounded=0;" parent="1" vertex="1">
          <mxGeometry x="3107.5" y="1428" width="157.5" height="60" as="geometry" />
        </mxCell>
        <mxCell id="OTvhO7HlEmndQmb5VHHz-71" style="edgeStyle=orthogonalEdgeStyle;rounded=0;orthogonalLoop=1;jettySize=auto;html=1;entryX=0.5;entryY=1;entryDx=0;entryDy=0;" edge="1" parent="1" source="6HkCY5qnbnnG2yOAfGwD-49" target="6HkCY5qnbnnG2yOAfGwD-41">
          <mxGeometry relative="1" as="geometry">
            <Array as="points">
              <mxPoint x="2750" y="1323" />
              <mxPoint x="2750" y="1243" />
            </Array>
          </mxGeometry>
        </mxCell>
        <mxCell id="OTvhO7HlEmndQmb5VHHz-72" style="edgeStyle=orthogonalEdgeStyle;rounded=0;orthogonalLoop=1;jettySize=auto;html=1;entryX=0.5;entryY=1;entryDx=0;entryDy=0;" edge="1" parent="1" source="6HkCY5qnbnnG2yOAfGwD-49" target="6HkCY5qnbnnG2yOAfGwD-36">
          <mxGeometry relative="1" as="geometry">
            <Array as="points">
              <mxPoint x="2750" y="1323" />
              <mxPoint x="2750" y="1398" />
            </Array>
          </mxGeometry>
        </mxCell>
        <mxCell id="OTvhO7HlEmndQmb5VHHz-73" style="edgeStyle=orthogonalEdgeStyle;rounded=0;orthogonalLoop=1;jettySize=auto;html=1;entryX=0.5;entryY=1;entryDx=0;entryDy=0;" edge="1" parent="1" source="6HkCY5qnbnnG2yOAfGwD-49" target="6HkCY5qnbnnG2yOAfGwD-46">
          <mxGeometry relative="1" as="geometry">
            <Array as="points">
              <mxPoint x="2750" y="1323" />
              <mxPoint x="2750" y="1488" />
              <mxPoint x="3272" y="1488" />
            </Array>
          </mxGeometry>
        </mxCell>
        <mxCell id="6HkCY5qnbnnG2yOAfGwD-49" value="&lt;span style=&quot;font-size: 33px;&quot;&gt;Flip sequence&amp;nbsp;&lt;/span&gt;&lt;div&gt;&lt;span style=&quot;font-size: 33px;&quot;&gt;(dim=1)&lt;/span&gt;&lt;/div&gt;" style="rounded=1;whiteSpace=wrap;html=1;fillColor=#698A6B;fontColor=#ffffff;strokeColor=#005700;rotation=0;" parent="1" vertex="1">
          <mxGeometry x="2490" y="1240.5" width="180" height="165" as="geometry" />
        </mxCell>
        <mxCell id="OTvhO7HlEmndQmb5VHHz-26" style="edgeStyle=orthogonalEdgeStyle;rounded=0;orthogonalLoop=1;jettySize=auto;html=1;entryX=0;entryY=0.5;entryDx=0;entryDy=0;" edge="1" parent="1" source="OTvhO7HlEmndQmb5VHHz-23" target="OTvhO7HlEmndQmb5VHHz-25">
          <mxGeometry relative="1" as="geometry" />
        </mxCell>
        <mxCell id="OTvhO7HlEmndQmb5VHHz-27" value="permute" style="edgeLabel;html=1;align=center;verticalAlign=middle;resizable=0;points=[];fontSize=33;" vertex="1" connectable="0" parent="OTvhO7HlEmndQmb5VHHz-26">
          <mxGeometry x="-0.0854" y="-7" relative="1" as="geometry">
            <mxPoint y="17" as="offset" />
          </mxGeometry>
        </mxCell>
        <mxCell id="OTvhO7HlEmndQmb5VHHz-23" value="&lt;font style=&quot;font-size: 33px;&quot;&gt;&lt;span style=&quot;color: rgb(0, 0, 0);&quot;&gt;(H, W, 2)&lt;/span&gt;&lt;/font&gt;" style="rounded=0;whiteSpace=wrap;html=1;fillColor=#f5f5f5;dashed=1;fontColor=#333333;strokeColor=#666666;rotation=0;" vertex="1" parent="1">
          <mxGeometry x="1501.25" y="-124" width="190" height="123.82" as="geometry" />
        </mxCell>
        <mxCell id="OTvhO7HlEmndQmb5VHHz-30" style="edgeStyle=orthogonalEdgeStyle;rounded=0;orthogonalLoop=1;jettySize=auto;html=1;entryX=0.5;entryY=0;entryDx=0;entryDy=0;" edge="1" parent="1" source="OTvhO7HlEmndQmb5VHHz-25" target="OTvhO7HlEmndQmb5VHHz-29">
          <mxGeometry relative="1" as="geometry" />
        </mxCell>
        <mxCell id="OTvhO7HlEmndQmb5VHHz-25" value="&lt;font style=&quot;font-size: 33px;&quot;&gt;(2, H, W)&lt;/font&gt;" style="rounded=0;whiteSpace=wrap;html=1;dashed=1;fillColor=#B4DDC7;strokeColor=#82B366;" vertex="1" parent="1">
          <mxGeometry x="1887.5" y="-102.09" width="260" height="80" as="geometry" />
        </mxCell>
        <mxCell id="OTvhO7HlEmndQmb5VHHz-45" style="edgeStyle=orthogonalEdgeStyle;rounded=0;orthogonalLoop=1;jettySize=auto;html=1;entryX=0;entryY=0.5;entryDx=0;entryDy=0;" edge="1" parent="1" source="OTvhO7HlEmndQmb5VHHz-29" target="OTvhO7HlEmndQmb5VHHz-44">
          <mxGeometry relative="1" as="geometry" />
        </mxCell>
        <mxCell id="OTvhO7HlEmndQmb5VHHz-29" value="&lt;font style=&quot;font-size: 33px;&quot;&gt;Conv2d&lt;/font&gt;&lt;div&gt;&lt;font style=&quot;font-size: 33px;&quot;&gt;(C&lt;sub style=&quot;&quot;&gt;out&lt;/sub&gt;: 96)&lt;/font&gt;&lt;/div&gt;" style="rounded=1;whiteSpace=wrap;html=1;fillColor=#698A6B;fontColor=#ffffff;strokeColor=#005700;rotation=0;" vertex="1" parent="1">
          <mxGeometry x="1856.25" y="23.5" width="322.5" height="104" as="geometry" />
        </mxCell>
        <mxCell id="OTvhO7HlEmndQmb5VHHz-52" style="edgeStyle=orthogonalEdgeStyle;rounded=0;orthogonalLoop=1;jettySize=auto;html=1;entryX=0.5;entryY=0;entryDx=0;entryDy=0;" edge="1" parent="1" source="OTvhO7HlEmndQmb5VHHz-34" target="OTvhO7HlEmndQmb5VHHz-47">
          <mxGeometry relative="1" as="geometry" />
        </mxCell>
        <mxCell id="OTvhO7HlEmndQmb5VHHz-34" value="&lt;font style=&quot;font-size: 33px;&quot;&gt;(96, H/2, W/2)&lt;/font&gt;" style="rounded=0;whiteSpace=wrap;html=1;dashed=1;fillColor=#B4DDC7;strokeColor=#82B366;" vertex="1" parent="1">
          <mxGeometry x="1887.5" y="227.5" width="260" height="80" as="geometry" />
        </mxCell>
        <mxCell id="OTvhO7HlEmndQmb5VHHz-42" style="edgeStyle=orthogonalEdgeStyle;rounded=0;orthogonalLoop=1;jettySize=auto;html=1;" edge="1" parent="1" source="OTvhO7HlEmndQmb5VHHz-41" target="OTvhO7HlEmndQmb5VHHz-34">
          <mxGeometry relative="1" as="geometry" />
        </mxCell>
        <mxCell id="OTvhO7HlEmndQmb5VHHz-41" value="&lt;span style=&quot;color: rgb(255, 255, 255); font-size: 33px;&quot;&gt;MaxPool2d&lt;/span&gt;" style="rounded=1;whiteSpace=wrap;html=1;fillColor=#698A6B;fontColor=#ffffff;strokeColor=#005700;rotation=0;" vertex="1" parent="1">
          <mxGeometry x="1856.25" y="127.5" width="322.5" height="52.5" as="geometry" />
        </mxCell>
        <mxCell id="OTvhO7HlEmndQmb5VHHz-44" value="&lt;font style=&quot;font-size: 33px;&quot;&gt;skip1&lt;/font&gt;" style="rounded=0;whiteSpace=wrap;html=1;dashed=1;fillColor=#B4DDC7;strokeColor=#82B366;" vertex="1" parent="1">
          <mxGeometry x="2230" y="35.5" width="260" height="80" as="geometry" />
        </mxCell>
        <mxCell id="OTvhO7HlEmndQmb5VHHz-46" style="edgeStyle=orthogonalEdgeStyle;rounded=0;orthogonalLoop=1;jettySize=auto;html=1;entryX=0;entryY=0.5;entryDx=0;entryDy=0;" edge="1" parent="1" source="OTvhO7HlEmndQmb5VHHz-47" target="OTvhO7HlEmndQmb5VHHz-51">
          <mxGeometry relative="1" as="geometry" />
        </mxCell>
        <mxCell id="OTvhO7HlEmndQmb5VHHz-47" value="&lt;font style=&quot;font-size: 33px;&quot;&gt;Conv2d&lt;/font&gt;&lt;div&gt;&lt;font style=&quot;font-size: 33px;&quot;&gt;(C&lt;sub style=&quot;&quot;&gt;out&lt;/sub&gt;: 196)&lt;/font&gt;&lt;/div&gt;" style="rounded=1;whiteSpace=wrap;html=1;fillColor=#698A6B;fontColor=#ffffff;strokeColor=#005700;rotation=0;" vertex="1" parent="1">
          <mxGeometry x="1856.25" y="366" width="322.5" height="104" as="geometry" />
        </mxCell>
        <mxCell id="OTvhO7HlEmndQmb5VHHz-59" style="edgeStyle=orthogonalEdgeStyle;rounded=0;orthogonalLoop=1;jettySize=auto;html=1;entryX=0.5;entryY=0;entryDx=0;entryDy=0;" edge="1" parent="1" source="OTvhO7HlEmndQmb5VHHz-48" target="OTvhO7HlEmndQmb5VHHz-54">
          <mxGeometry relative="1" as="geometry" />
        </mxCell>
        <mxCell id="OTvhO7HlEmndQmb5VHHz-48" value="&lt;font style=&quot;font-size: 33px;&quot;&gt;(192, H/4, W/4)&lt;/font&gt;" style="rounded=0;whiteSpace=wrap;html=1;dashed=1;fillColor=#B4DDC7;strokeColor=#82B366;" vertex="1" parent="1">
          <mxGeometry x="1887.5" y="570" width="260" height="80" as="geometry" />
        </mxCell>
        <mxCell id="OTvhO7HlEmndQmb5VHHz-49" style="edgeStyle=orthogonalEdgeStyle;rounded=0;orthogonalLoop=1;jettySize=auto;html=1;" edge="1" parent="1" source="OTvhO7HlEmndQmb5VHHz-50" target="OTvhO7HlEmndQmb5VHHz-48">
          <mxGeometry relative="1" as="geometry" />
        </mxCell>
        <mxCell id="OTvhO7HlEmndQmb5VHHz-50" value="&lt;span style=&quot;color: rgb(255, 255, 255); font-size: 33px;&quot;&gt;MaxPool2d&lt;/span&gt;" style="rounded=1;whiteSpace=wrap;html=1;fillColor=#698A6B;fontColor=#ffffff;strokeColor=#005700;rotation=0;" vertex="1" parent="1">
          <mxGeometry x="1856.25" y="470" width="322.5" height="52.5" as="geometry" />
        </mxCell>
        <mxCell id="OTvhO7HlEmndQmb5VHHz-51" value="&lt;font style=&quot;font-size: 33px;&quot;&gt;skip2&lt;/font&gt;" style="rounded=0;whiteSpace=wrap;html=1;dashed=1;fillColor=#B4DDC7;strokeColor=#82B366;" vertex="1" parent="1">
          <mxGeometry x="2230" y="378" width="260" height="80" as="geometry" />
        </mxCell>
        <mxCell id="OTvhO7HlEmndQmb5VHHz-53" style="edgeStyle=orthogonalEdgeStyle;rounded=0;orthogonalLoop=1;jettySize=auto;html=1;entryX=0;entryY=0.5;entryDx=0;entryDy=0;" edge="1" parent="1" source="OTvhO7HlEmndQmb5VHHz-54" target="OTvhO7HlEmndQmb5VHHz-58">
          <mxGeometry relative="1" as="geometry" />
        </mxCell>
        <mxCell id="OTvhO7HlEmndQmb5VHHz-54" value="&lt;font style=&quot;font-size: 33px;&quot;&gt;Conv2d&lt;/font&gt;&lt;div&gt;&lt;font style=&quot;font-size: 33px;&quot;&gt;(C&lt;sub style=&quot;&quot;&gt;out&lt;/sub&gt;: 384)&lt;/font&gt;&lt;/div&gt;" style="rounded=1;whiteSpace=wrap;html=1;fillColor=#698A6B;fontColor=#ffffff;strokeColor=#005700;rotation=0;" vertex="1" parent="1">
          <mxGeometry x="1856.25" y="703.91" width="322.5" height="104" as="geometry" />
        </mxCell>
        <mxCell id="OTvhO7HlEmndQmb5VHHz-70" style="edgeStyle=orthogonalEdgeStyle;rounded=0;orthogonalLoop=1;jettySize=auto;html=1;entryX=0.5;entryY=0;entryDx=0;entryDy=0;" edge="1" parent="1" source="OTvhO7HlEmndQmb5VHHz-55" target="OTvhO7HlEmndQmb5VHHz-61">
          <mxGeometry relative="1" as="geometry" />
        </mxCell>
        <mxCell id="OTvhO7HlEmndQmb5VHHz-55" value="&lt;font style=&quot;font-size: 33px;&quot;&gt;(384, H/8, W/8)&lt;/font&gt;" style="rounded=0;whiteSpace=wrap;html=1;dashed=1;fillColor=#B4DDC7;strokeColor=#82B366;" vertex="1" parent="1">
          <mxGeometry x="1887.5" y="907.91" width="260" height="80" as="geometry" />
        </mxCell>
        <mxCell id="OTvhO7HlEmndQmb5VHHz-56" style="edgeStyle=orthogonalEdgeStyle;rounded=0;orthogonalLoop=1;jettySize=auto;html=1;" edge="1" parent="1" source="OTvhO7HlEmndQmb5VHHz-57" target="OTvhO7HlEmndQmb5VHHz-55">
          <mxGeometry relative="1" as="geometry" />
        </mxCell>
        <mxCell id="OTvhO7HlEmndQmb5VHHz-57" value="&lt;span style=&quot;color: rgb(255, 255, 255); font-size: 33px;&quot;&gt;MaxPool2d&lt;/span&gt;" style="rounded=1;whiteSpace=wrap;html=1;fillColor=#698A6B;fontColor=#ffffff;strokeColor=#005700;rotation=0;" vertex="1" parent="1">
          <mxGeometry x="1856.25" y="807.91" width="322.5" height="52.5" as="geometry" />
        </mxCell>
        <mxCell id="OTvhO7HlEmndQmb5VHHz-94" style="edgeStyle=orthogonalEdgeStyle;rounded=0;orthogonalLoop=1;jettySize=auto;html=1;entryX=0.5;entryY=1;entryDx=0;entryDy=0;" edge="1" parent="1" source="OTvhO7HlEmndQmb5VHHz-58" target="OTvhO7HlEmndQmb5VHHz-92">
          <mxGeometry relative="1" as="geometry" />
        </mxCell>
        <mxCell id="OTvhO7HlEmndQmb5VHHz-58" value="&lt;font style=&quot;font-size: 33px;&quot;&gt;skip3&lt;/font&gt;" style="rounded=0;whiteSpace=wrap;html=1;dashed=1;fillColor=#B4DDC7;strokeColor=#82B366;" vertex="1" parent="1">
          <mxGeometry x="2230" y="715.91" width="260" height="80" as="geometry" />
        </mxCell>
        <mxCell id="OTvhO7HlEmndQmb5VHHz-66" style="edgeStyle=orthogonalEdgeStyle;rounded=0;orthogonalLoop=1;jettySize=auto;html=1;" edge="1" parent="1" source="OTvhO7HlEmndQmb5VHHz-61" target="OTvhO7HlEmndQmb5VHHz-62">
          <mxGeometry relative="1" as="geometry" />
        </mxCell>
        <mxCell id="OTvhO7HlEmndQmb5VHHz-61" value="&lt;font style=&quot;font-size: 33px;&quot;&gt;Conv2d&lt;/font&gt;&lt;div&gt;&lt;font style=&quot;font-size: 33px;&quot;&gt;(C&lt;sub style=&quot;&quot;&gt;out&lt;/sub&gt;: 768)&lt;/font&gt;&lt;/div&gt;" style="rounded=1;whiteSpace=wrap;html=1;fillColor=#698A6B;fontColor=#ffffff;strokeColor=#005700;rotation=0;" vertex="1" parent="1">
          <mxGeometry x="1856.25" y="1030" width="322.5" height="104" as="geometry" />
        </mxCell>
        <mxCell id="OTvhO7HlEmndQmb5VHHz-68" style="edgeStyle=orthogonalEdgeStyle;rounded=0;orthogonalLoop=1;jettySize=auto;html=1;" edge="1" parent="1" source="OTvhO7HlEmndQmb5VHHz-62" target="OTvhO7HlEmndQmb5VHHz-67">
          <mxGeometry relative="1" as="geometry" />
        </mxCell>
        <mxCell id="OTvhO7HlEmndQmb5VHHz-62" value="&lt;font style=&quot;font-size: 33px;&quot;&gt;(768, H/8, W/8)&lt;/font&gt;" style="rounded=0;whiteSpace=wrap;html=1;dashed=1;fillColor=#B4DDC7;strokeColor=#82B366;" vertex="1" parent="1">
          <mxGeometry x="1887.5" y="1190" width="260" height="80" as="geometry" />
        </mxCell>
        <mxCell id="OTvhO7HlEmndQmb5VHHz-74" style="edgeStyle=orthogonalEdgeStyle;rounded=0;orthogonalLoop=1;jettySize=auto;html=1;entryX=0;entryY=0.5;entryDx=0;entryDy=0;" edge="1" parent="1" source="OTvhO7HlEmndQmb5VHHz-67" target="6HkCY5qnbnnG2yOAfGwD-49">
          <mxGeometry relative="1" as="geometry">
            <Array as="points">
              <mxPoint x="2360" y="1370" />
              <mxPoint x="2360" y="1323" />
            </Array>
          </mxGeometry>
        </mxCell>
        <mxCell id="OTvhO7HlEmndQmb5VHHz-75" style="edgeStyle=orthogonalEdgeStyle;rounded=0;orthogonalLoop=1;jettySize=auto;html=1;entryX=0.5;entryY=1;entryDx=0;entryDy=0;" edge="1" parent="1" source="OTvhO7HlEmndQmb5VHHz-67" target="EPnAkS95bglsHTF8loIi-49">
          <mxGeometry relative="1" as="geometry">
            <Array as="points">
              <mxPoint x="2360" y="1370" />
              <mxPoint x="2360" y="1065" />
            </Array>
          </mxGeometry>
        </mxCell>
        <mxCell id="OTvhO7HlEmndQmb5VHHz-76" style="edgeStyle=orthogonalEdgeStyle;rounded=0;orthogonalLoop=1;jettySize=auto;html=1;entryX=0.5;entryY=1;entryDx=0;entryDy=0;" edge="1" parent="1" source="OTvhO7HlEmndQmb5VHHz-67" target="EPnAkS95bglsHTF8loIi-244">
          <mxGeometry relative="1" as="geometry">
            <Array as="points">
              <mxPoint x="2360" y="1370" />
              <mxPoint x="2360" y="910" />
            </Array>
          </mxGeometry>
        </mxCell>
        <mxCell id="OTvhO7HlEmndQmb5VHHz-77" style="edgeStyle=orthogonalEdgeStyle;rounded=0;orthogonalLoop=1;jettySize=auto;html=1;entryX=0.5;entryY=1;entryDx=0;entryDy=0;" edge="1" parent="1" source="OTvhO7HlEmndQmb5VHHz-67" target="EPnAkS95bglsHTF8loIi-255">
          <mxGeometry relative="1" as="geometry">
            <Array as="points">
              <mxPoint x="2360" y="1370" />
              <mxPoint x="2360" y="1160" />
              <mxPoint x="3273" y="1160" />
            </Array>
          </mxGeometry>
        </mxCell>
        <mxCell id="OTvhO7HlEmndQmb5VHHz-67" value="&lt;font style=&quot;font-size: 33px;&quot;&gt;(H/8×W/8, 768)&lt;/font&gt;" style="rounded=0;whiteSpace=wrap;html=1;dashed=1;fillColor=#B4DDC7;strokeColor=#82B366;" vertex="1" parent="1">
          <mxGeometry x="1887.5" y="1330" width="260" height="80" as="geometry" />
        </mxCell>
        <mxCell id="OTvhO7HlEmndQmb5VHHz-69" value="&lt;font style=&quot;font-size: 33px;&quot;&gt;Flatten&lt;/font&gt;" style="text;html=1;align=center;verticalAlign=middle;whiteSpace=wrap;rounded=0;" vertex="1" parent="1">
          <mxGeometry x="1883.75" y="1290" width="120" height="30" as="geometry" />
        </mxCell>
        <mxCell id="OTvhO7HlEmndQmb5VHHz-78" value="&lt;font style=&quot;font-size: 22px; color: rgb(95, 120, 158);&quot;&gt;&lt;b&gt;Mamba&lt;/b&gt;&lt;/font&gt;&lt;div&gt;&lt;font style=&quot;font-size: 22px; color: rgb(95, 120, 158);&quot;&gt;&lt;b&gt;(Forward)&lt;/b&gt;&lt;/font&gt;&lt;/div&gt;" style="text;html=1;align=center;verticalAlign=middle;whiteSpace=wrap;rounded=0;" vertex="1" parent="1">
          <mxGeometry x="3107.5" y="1100" width="157.5" height="60" as="geometry" />
        </mxCell>
        <mxCell id="OTvhO7HlEmndQmb5VHHz-82" value="&lt;font style=&quot;font-size: 33px;&quot;&gt;Concatenate&lt;/font&gt;" style="text;html=1;align=center;verticalAlign=middle;whiteSpace=wrap;rounded=0;" vertex="1" parent="1">
          <mxGeometry x="3400" y="1067" width="180" height="30" as="geometry" />
        </mxCell>
        <mxCell id="OTvhO7HlEmndQmb5VHHz-86" style="edgeStyle=orthogonalEdgeStyle;rounded=0;orthogonalLoop=1;jettySize=auto;html=1;entryX=0;entryY=0.5;entryDx=0;entryDy=0;" edge="1" parent="1" source="OTvhO7HlEmndQmb5VHHz-83" target="OTvhO7HlEmndQmb5VHHz-84">
          <mxGeometry relative="1" as="geometry" />
        </mxCell>
        <mxCell id="OTvhO7HlEmndQmb5VHHz-83" value="&lt;span style=&quot;font-size: 33px;&quot;&gt;Linear&lt;/span&gt;&lt;div&gt;&lt;span style=&quot;font-size: 33px;&quot;&gt;Fusion&lt;/span&gt;&lt;/div&gt;" style="rounded=1;whiteSpace=wrap;html=1;fillColor=#698A6B;fontColor=#ffffff;strokeColor=#005700;rotation=0;" vertex="1" parent="1">
          <mxGeometry x="3400" y="1100" width="180" height="165" as="geometry" />
        </mxCell>
        <mxCell id="OTvhO7HlEmndQmb5VHHz-89" style="edgeStyle=orthogonalEdgeStyle;rounded=0;orthogonalLoop=1;jettySize=auto;html=1;entryX=0.5;entryY=1;entryDx=0;entryDy=0;" edge="1" parent="1" source="OTvhO7HlEmndQmb5VHHz-84" target="OTvhO7HlEmndQmb5VHHz-88">
          <mxGeometry relative="1" as="geometry" />
        </mxCell>
        <mxCell id="OTvhO7HlEmndQmb5VHHz-84" value="&lt;font style=&quot;font-size: 33px;&quot;&gt;(768, H/8, W/8)&lt;/font&gt;" style="rounded=0;whiteSpace=wrap;html=1;dashed=1;fillColor=#B4DDC7;strokeColor=#82B366;" vertex="1" parent="1">
          <mxGeometry x="3640" y="1142.5" width="260" height="80" as="geometry" />
        </mxCell>
        <mxCell id="OTvhO7HlEmndQmb5VHHz-87" value="&lt;font style=&quot;font-size: 33px;&quot;&gt;Reshape&lt;/font&gt;" style="text;html=1;align=center;verticalAlign=middle;whiteSpace=wrap;rounded=0;" vertex="1" parent="1">
          <mxGeometry x="3680" y="1228" width="180" height="30" as="geometry" />
        </mxCell>
        <mxCell id="OTvhO7HlEmndQmb5VHHz-91" style="edgeStyle=orthogonalEdgeStyle;rounded=0;orthogonalLoop=1;jettySize=auto;html=1;entryX=0.5;entryY=1;entryDx=0;entryDy=0;" edge="1" parent="1" source="OTvhO7HlEmndQmb5VHHz-88" target="OTvhO7HlEmndQmb5VHHz-90">
          <mxGeometry relative="1" as="geometry" />
        </mxCell>
        <mxCell id="OTvhO7HlEmndQmb5VHHz-88" value="&lt;font style=&quot;font-size: 33px;&quot;&gt;TransConv2d&lt;/font&gt;&lt;div&gt;&lt;font style=&quot;font-size: 33px;&quot;&gt;(C&lt;sub style=&quot;&quot;&gt;out&lt;/sub&gt;:&amp;nbsp;&lt;span style=&quot;color: rgb(255, 255, 255);&quot;&gt;384&lt;/span&gt;)&lt;/font&gt;&lt;/div&gt;" style="rounded=1;whiteSpace=wrap;html=1;fillColor=#698A6B;fontColor=#ffffff;strokeColor=#005700;rotation=0;" vertex="1" parent="1">
          <mxGeometry x="3608.75" y="981" width="322.5" height="104" as="geometry" />
        </mxCell>
        <mxCell id="OTvhO7HlEmndQmb5VHHz-93" style="edgeStyle=orthogonalEdgeStyle;rounded=0;orthogonalLoop=1;jettySize=auto;html=1;entryX=0.5;entryY=1;entryDx=0;entryDy=0;" edge="1" parent="1" source="OTvhO7HlEmndQmb5VHHz-90" target="OTvhO7HlEmndQmb5VHHz-92">
          <mxGeometry relative="1" as="geometry">
            <mxPoint x="3770" y="780" as="targetPoint" />
          </mxGeometry>
        </mxCell>
        <mxCell id="OTvhO7HlEmndQmb5VHHz-90" value="&lt;font style=&quot;font-size: 33px;&quot;&gt;(384, H/4, W/4)&lt;/font&gt;" style="rounded=0;whiteSpace=wrap;html=1;dashed=1;fillColor=#B4DDC7;strokeColor=#82B366;" vertex="1" parent="1">
          <mxGeometry x="3640" y="850" width="260" height="80" as="geometry" />
        </mxCell>
        <mxCell id="OTvhO7HlEmndQmb5VHHz-92" value="&lt;font style=&quot;font-size: 33px;&quot;&gt;Conv2d&lt;/font&gt;&lt;div&gt;&lt;font style=&quot;font-size: 33px;&quot;&gt;(C&lt;sub style=&quot;&quot;&gt;out&lt;/sub&gt;: 384)&lt;/font&gt;&lt;/div&gt;" style="rounded=1;whiteSpace=wrap;html=1;fillColor=#698A6B;fontColor=#ffffff;strokeColor=#005700;rotation=0;" vertex="1" parent="1">
          <mxGeometry x="3608.75" y="620" width="322.5" height="104" as="geometry" />
        </mxCell>
        <mxCell id="OTvhO7HlEmndQmb5VHHz-95" value="&lt;font style=&quot;font-size: 33px;&quot;&gt;Concatenate&lt;/font&gt;" style="text;html=1;align=center;verticalAlign=middle;whiteSpace=wrap;rounded=0;" vertex="1" parent="1">
          <mxGeometry x="3580" y="780" width="180" height="30" as="geometry" />
        </mxCell>
      </root>
    </mxGraphModel>
  </diagram>
</mxfile>
